<svg width="205" height="44" viewBox="0 0 205 44" fill="none" xmlns="http://www.w3.org/2000/svg">
<path d="M188.61 20.7141C190.342 20.7141 191.661 20.2739 192.569 19.3934C193.517 18.4666 193.991 17.0764 193.991 15.2228C193.991 13.4618 193.496 12.118 192.507 11.1912C191.558 10.218 190.156 9.73146 188.301 9.73146C187.641 9.73146 187.085 9.75463 186.631 9.80097C186.219 9.80097 185.786 9.84731 185.332 9.93999V20.7141H188.61ZM185.394 43.0269C184.941 43.166 184.219 43.305 183.229 43.444C182.281 43.583 181.333 43.6525 180.384 43.6525C179.436 43.6525 178.591 43.5599 177.849 43.3745C177.148 43.2355 176.55 42.9574 176.055 42.5404C175.56 42.1233 175.189 41.5441 174.942 40.8026C174.694 40.0612 174.571 39.088 174.571 37.8832V5.14377C174.571 4.17062 174.798 3.42918 175.251 2.91944C175.746 2.36335 176.406 1.92312 177.23 1.59874C178.632 1.04265 180.22 0.648762 181.993 0.417061C183.807 0.13902 185.621 0 187.435 0C193.125 0 197.475 1.36704 200.485 4.10112C203.495 6.83519 205 10.5424 205 15.2228C205 17.4935 204.67 19.5556 204.01 21.4092C203.392 23.2165 202.444 24.792 201.165 26.1359C199.928 27.4334 198.341 28.4529 196.403 29.1944C194.506 29.8895 192.301 30.237 189.785 30.237H185.394V43.0269Z" fill="#575757"/>
<path d="M166.55 43.0269C166.096 43.1659 165.375 43.3049 164.385 43.444C163.437 43.583 162.488 43.6525 161.54 43.6525C160.592 43.6525 159.747 43.5598 159.004 43.3744C158.303 43.2354 157.706 42.9574 157.211 42.5403C156.716 42.1232 156.345 41.544 156.097 40.8026C155.85 40.0611 155.726 39.088 155.726 37.8831V1.18163C156.18 1.08894 156.902 0.973093 157.891 0.834074C158.881 0.648712 159.829 0.55603 160.736 0.55603C161.684 0.55603 162.509 0.648712 163.21 0.834074C163.952 0.973093 164.571 1.25113 165.065 1.6682C165.56 2.08526 165.931 2.66451 166.179 3.40596C166.426 4.1474 166.55 5.12055 166.55 6.32539V43.0269Z" fill="#575757"/>
<path d="M136.147 10.913H120.932C120.644 10.4033 120.376 9.70816 120.128 8.8277C119.881 7.94723 119.757 7.02043 119.757 6.04728C119.757 4.24001 120.108 2.94248 120.809 2.1547C121.551 1.36691 122.499 0.973022 123.654 0.973022H146.723C148.537 2.64127 149.444 4.86561 149.444 7.64602C149.444 8.80453 149.197 9.96303 148.702 11.1215C148.249 12.2337 147.651 13.2995 146.909 14.319L132.869 33.3649H148.702C148.991 33.8746 149.259 34.5697 149.506 35.4502C149.754 36.3307 149.877 37.2575 149.877 38.2306C149.877 40.0379 149.506 41.3354 148.764 42.1232C148.063 42.911 147.135 43.3049 145.981 43.3049H121.613C120.912 42.6561 120.334 41.7756 119.881 40.6635C119.427 39.5513 119.201 38.2769 119.201 36.8404C119.201 35.6819 119.469 34.5002 120.005 33.2954C120.541 32.0905 121.18 30.9784 121.922 29.9589L136.147 10.913Z" fill="#575757"/>
<path d="M85.261 10.913C84.9724 10.4033 84.7044 9.70816 84.457 8.8277C84.2096 7.94723 84.0859 7.02043 84.0859 6.04728C84.0859 4.24001 84.4363 2.94248 85.1373 2.1547C85.8795 1.36691 86.8278 0.973022 87.9823 0.973022H114.948C115.237 1.48276 115.505 2.17787 115.752 3.05833C116 3.9388 116.123 4.8656 116.123 5.83875C116.123 7.64602 115.752 8.94355 115.01 9.73134C114.309 10.5191 113.381 10.913 112.227 10.913H105.362V43.0268C104.908 43.1658 104.187 43.3049 103.197 43.4439C102.249 43.5829 101.3 43.6524 100.352 43.6524C99.4036 43.6524 98.5583 43.5597 97.8162 43.3744C97.1152 43.2354 96.5174 42.9573 96.0226 42.5402C95.5278 42.1232 95.1567 41.5439 94.9093 40.8025C94.6619 40.061 94.5382 39.0879 94.5382 37.8831V10.913H85.261Z" fill="#575757"/>
<path d="M58.3697 2.43274C59.0706 1.96934 60.122 1.52911 61.5239 1.11204C62.967 0.69498 64.4102 0.48645 65.8533 0.48645C67.9149 0.48645 69.7291 0.834002 71.2959 1.52911C72.904 2.17787 73.9348 3.22053 74.3883 4.65707C75.1305 7.06677 75.9345 9.87036 76.8004 13.0678C77.6663 16.2653 78.5322 19.5786 79.398 23.0078C80.2639 26.3907 81.1092 29.7503 81.9338 33.0868C82.7584 36.377 83.48 39.2964 84.0985 41.8451C83.6037 42.4939 82.8615 43.0037 81.872 43.3744C80.8824 43.7914 79.7073 44 78.3466 44C77.357 44 76.5118 43.9073 75.8108 43.7219C75.1511 43.5366 74.5945 43.2585 74.1409 42.8878C73.7286 42.5171 73.3781 42.0305 73.0895 41.4281C72.8421 40.8257 72.6154 40.1306 72.4092 39.3428L71.2959 34.5466H60.1014C59.7716 35.9368 59.4417 37.3733 59.1118 38.8562C58.782 40.3391 58.4521 41.7756 58.1223 43.1658C57.545 43.3975 56.9265 43.5829 56.2668 43.7219C55.6484 43.9073 54.8856 44 53.9785 44C51.8756 44 50.3088 43.6061 49.278 42.8183C48.2884 41.9842 47.7936 40.8488 47.7936 39.4123C47.7936 38.7635 47.8761 38.1148 48.041 37.466C48.206 36.8172 48.3915 36.0526 48.5977 35.1721C48.8863 33.921 49.278 32.3686 49.7728 30.5149C50.3088 28.6613 50.886 26.6687 51.5045 24.5371C52.123 22.3591 52.7827 20.1347 53.4837 17.8641C54.1846 15.5934 54.8443 13.4617 55.4628 11.4691C56.0813 9.43012 56.6379 7.62286 57.1327 6.04729C57.6687 4.47172 58.081 3.26687 58.3697 2.43274ZM65.7914 11.3996C65.2142 13.3459 64.5545 15.5239 63.8123 17.9336C63.1114 20.2969 62.4723 22.7066 61.895 25.1626H69.5642C68.9869 22.6603 68.3891 20.2274 67.7706 17.8641C67.1933 15.4544 66.6573 13.2995 66.1625 11.3996H65.7914Z" fill="#575757"/>
<path d="M26.7184 32.9477C26.1824 33.4575 25.4814 33.8745 24.6156 34.1989C23.7909 34.477 22.822 34.616 21.7087 34.616C20.2243 34.616 18.9874 34.4075 17.9978 33.9904C17.0495 33.5733 16.431 32.8551 16.1424 31.8356C14.9879 27.7576 14.0395 24.4675 13.2973 21.9651C12.5552 19.4164 11.9779 17.192 11.5656 15.2921H11.2564C11.1327 18.0262 11.0296 20.5285 10.9471 22.7992C10.9059 25.0236 10.8647 27.2015 10.8234 29.3332C10.8234 31.4649 10.7822 33.6197 10.6997 35.7977C10.6585 37.9757 10.576 40.3854 10.4523 43.0268C9.91632 43.2585 9.21537 43.4438 8.3495 43.5828C7.48362 43.7682 6.61775 43.8609 5.75188 43.8609C3.93766 43.8609 2.51516 43.5365 1.48436 42.8877C0.494785 42.239 0 41.0573 0 39.3427L1.7936 3.89239C2.12345 3.28996 2.84501 2.6412 3.95828 1.9461C5.07155 1.25099 6.63837 0.903442 8.65874 0.903442C10.844 0.903442 12.5552 1.29733 13.7921 2.08512C15.0291 2.82656 15.9362 4.05458 16.5134 5.76917C16.8845 6.88134 17.2762 8.15569 17.6886 9.59224C18.1421 11.0288 18.5751 12.5117 18.9874 14.0409C19.4409 15.5701 19.8739 17.0994 20.2862 18.6286C20.6985 20.1115 21.0696 21.4554 21.3995 22.6602H21.7087C22.6983 18.7676 23.6878 15.0141 24.6774 11.3995C25.667 7.73863 26.5741 4.68017 27.3987 2.22414C28.0172 1.85342 28.8006 1.5522 29.749 1.3205C30.7385 1.04246 31.8312 0.903442 33.0269 0.903442C35.0473 0.903442 36.6966 1.25099 37.9748 1.9461C39.2529 2.59486 39.9951 3.54484 40.2013 4.79602C40.3662 5.72283 40.5311 7.15938 40.6961 9.10567C40.9022 11.0056 41.1084 13.1604 41.3146 15.5701C41.5207 17.9798 41.7269 20.5285 41.933 23.2163C42.1392 25.904 42.3247 28.4991 42.4897 31.0015C42.6958 33.4575 42.8608 35.7282 42.9845 37.8135C43.1082 39.8524 43.1906 41.428 43.2318 42.5402C42.5309 43.0036 41.7887 43.328 41.0053 43.5133C40.2631 43.745 39.2942 43.8609 38.0984 43.8609C36.5316 43.8609 35.2122 43.5597 34.1402 42.9572C33.0681 42.3548 32.4909 41.1731 32.4084 39.4122C32.161 34.3611 31.9961 29.8198 31.9136 25.7882C31.8724 21.7566 31.7899 18.3737 31.6662 15.6396H31.357C30.9447 17.4469 30.3468 19.7176 29.5634 22.4517C28.78 25.1857 27.8317 28.6844 26.7184 32.9477Z" fill="#575757"/>
</svg>
