<svg width="19" height="19" viewBox="0 0 19 19" fill="none" xmlns="http://www.w3.org/2000/svg">
<path d="M10.5032 1.02171L10.7112 0.0435919L10.7108 0.0435154L10.5032 1.02171ZM11.2483 1.69652L12.2012 1.39314L12.2009 1.39234L11.2483 1.69652ZM11.3157 2.15746L12.3107 2.05811L11.3157 2.15746ZM11.4456 2.98265L10.5271 3.37827L10.5273 3.37866L11.4456 2.98265ZM12.7336 3.51585L13.1031 4.44508L13.1037 4.44485L12.7336 3.51585ZM13.4084 3.02367L12.7752 2.2497L13.4084 3.02367ZM13.7834 2.74535L13.3253 1.85646L13.3253 1.85647L13.7834 2.74535ZM14.7864 2.79515L15.3309 1.95641L15.3307 1.95628L14.7864 2.79515ZM15.1311 3.1096L15.8382 2.4025L15.1311 3.1096ZM15.8909 3.86937L16.598 3.16226L15.8909 3.86937ZM16.2043 4.2141L17.0431 3.66959L17.043 3.66941L16.2043 4.2141ZM16.2542 5.21703L17.1428 5.67569L17.1428 5.67565L16.2542 5.21703ZM15.9758 5.59203L15.2021 4.9585L15.9758 5.59203ZM15.4846 6.26683L14.5555 5.897L14.5554 5.89726L15.4846 6.26683ZM16.0178 7.55492L15.622 8.47322L15.6227 8.47357L16.0178 7.55492ZM16.843 7.68382L16.9426 6.68879L16.843 7.68382ZM17.3049 7.75218L17.6095 6.79971L17.6095 6.7997L17.3049 7.75218ZM17.9788 8.49632L18.9568 8.28807L18.9568 8.28781L17.9788 8.49632ZM17.9788 10.5032L18.9569 10.7111L18.9569 10.7109L17.9788 10.5032ZM17.304 11.2483L17.6074 12.2011L17.608 12.2009L17.304 11.2483ZM16.843 11.3157L16.7437 10.3206L16.843 11.3157ZM16.0188 11.4455L15.6233 10.5271L15.6233 10.5271L16.0188 11.4455ZM15.4856 12.7336L14.5565 13.1034L14.5567 13.1039L15.4856 12.7336ZM15.9768 13.4084L16.7507 12.7751L15.9768 13.4084ZM16.2551 13.7825L17.144 13.3243L17.1438 13.3238L16.2551 13.7825ZM16.2043 14.7854L17.0429 15.3302L17.043 15.33L16.2043 14.7854ZM15.1311 15.8899L15.8382 16.597L15.1311 15.8899ZM14.7864 16.2043L15.3307 17.0432L15.3309 17.0431L14.7864 16.2043ZM13.7834 16.2541L13.3253 17.143L13.3253 17.143L13.7834 16.2541ZM13.4084 15.9758L14.0417 15.2018L13.4084 15.9758ZM12.7327 15.4836L13.1019 14.5543L13.1016 14.5542L12.7327 15.4836ZM11.4456 16.0168L10.5273 15.6208L10.5273 15.6209L11.4456 16.0168ZM11.3157 16.843L12.3107 16.9423L11.3157 16.843ZM11.2483 17.3049L12.2008 17.6094L12.2008 17.6093L11.2483 17.3049ZM10.5032 17.9787L10.7108 18.957L10.7114 18.9568L10.5032 17.9787ZM10.0374 18.0002V19.0002V18.0002ZM8.49634 17.9787L8.28801 18.9568L8.28812 18.9568L8.49634 17.9787ZM7.7522 17.3049L6.79969 17.6094L6.79984 17.6099L7.7522 17.3049ZM7.68384 16.843L6.68884 16.9429L7.68384 16.843ZM7.55396 16.0178L8.47222 15.6218L8.47219 15.6218L7.55396 16.0178ZM6.26587 15.4846L5.89602 14.5555L5.8959 14.5556L6.26587 15.4846ZM5.59204 15.9768L4.95855 15.203L5.59204 15.9768ZM5.21704 16.2541L5.67566 17.1428L5.67576 17.1427L5.21704 16.2541ZM4.21411 16.2043L3.66943 17.043L3.66952 17.043L4.21411 16.2043ZM3.86938 15.8909L3.16228 16.598L3.86938 15.8909ZM3.10962 15.1311L2.40251 15.8382L3.10962 15.1311ZM2.79517 14.7864L1.95629 15.3307L1.95643 15.3309L2.79517 14.7864ZM2.74536 13.7834L1.85648 13.3253L1.85648 13.3253L2.74536 13.7834ZM3.02368 13.4084L2.24971 12.7752L3.02368 13.4084ZM3.51587 12.7336L4.44486 13.1037L4.4451 13.1031L3.51587 12.7336ZM2.98267 11.4455L3.37867 10.5273L3.37828 10.5271L2.98267 11.4455ZM2.15747 11.3157L2.05813 12.3107L2.15747 11.3157ZM1.69653 11.2483L1.39236 12.2009L1.39316 12.2011L1.69653 11.2483ZM1.02173 10.5032L0.0435306 10.7108L0.0436072 10.7112L1.02173 10.5032ZM1.02173 8.49632L0.0437046 8.28783L0.043638 8.28814L1.02173 8.49632ZM1.69556 7.75218L1.39098 6.79969L1.39095 6.7997L1.69556 7.75218ZM2.15747 7.68382L2.25708 8.67885L2.15747 7.68382ZM2.98267 7.55492L3.37839 8.47328L3.37865 8.47318L2.98267 7.55492ZM3.51587 6.26683L4.44513 5.89742L4.44508 5.89728L3.51587 6.26683ZM3.02368 5.59203L3.79754 4.95867L3.02368 5.59203ZM2.74536 5.21703L1.8565 5.6752L1.85663 5.67546L2.74536 5.21703ZM2.79614 4.2141L1.95767 3.66915L1.95735 3.66964L2.79614 4.2141ZM3.10962 3.86937L2.40251 3.16226L3.10962 3.86937ZM3.86938 3.1096L3.16228 2.4025L3.86938 3.1096ZM4.21411 2.79515L3.6697 1.95633L3.66958 1.95641L4.21411 2.79515ZM5.21704 2.74535L5.67523 1.85649L5.67516 1.85646L5.21704 2.74535ZM5.59204 3.02367L4.95885 3.79766L5.59204 3.02367ZM6.26685 3.51585L5.8975 4.44515L5.89759 4.44518L6.26685 3.51585ZM7.55493 2.98265L8.47308 3.37889L8.47318 3.37866L7.55493 2.98265ZM7.68384 2.15746L8.67886 2.2571L7.68384 2.15746ZM7.7522 1.69554L6.79972 1.39093L6.7997 1.39101L7.7522 1.69554ZM8.49634 1.02171L8.28823 0.0436081L8.28787 0.0436842L8.49634 1.02171ZM9.50024 6.09984V5.09984H9.50024L9.50024 6.09984ZM6.09985 9.50023H5.09985V9.50026L6.09985 9.50023ZM9.50024 12.9006L9.50024 13.9006H9.50024V12.9006ZM12.9006 9.50023L13.9006 9.50026V9.50023H12.9006ZM10.0374 1.00023V2.00023C10.1663 2.00023 10.2354 2.0003 10.2864 2.00214C10.3324 2.0038 10.3241 2.00598 10.2955 1.99991L10.5032 1.02171L10.7108 0.0435154C10.4792 -0.00565469 10.227 0.000228882 10.0374 0.000228882V1.00023ZM10.5032 1.02171L10.2951 1.99983C10.2951 1.99984 10.2951 1.99982 10.2949 1.99977C10.2948 1.99973 10.2947 1.99969 10.2947 1.99967C10.2946 1.99964 10.2948 1.99973 10.2951 2C10.2954 2.00026 10.2956 2.00049 10.2956 2.00058C10.2956 2.00059 10.2956 2.00055 10.2957 2.00069L11.2483 1.69652L12.2009 1.39234C11.9827 0.708874 11.4142 0.193105 10.7112 0.043592L10.5032 1.02171ZM11.2483 1.69652L10.2954 1.99989C10.2865 1.97177 10.2878 1.96307 10.294 2.00886C10.3009 2.05961 10.3078 2.12824 10.3206 2.2568L11.3157 2.15746L12.3107 2.05811C12.292 1.87069 12.2729 1.61862 12.2012 1.39314L11.2483 1.69652ZM11.3157 2.15746L10.3206 2.2568C10.3425 2.47557 10.362 2.67225 10.3851 2.83122C10.4072 2.98363 10.4428 3.18257 10.5271 3.37827L11.4456 2.98265L12.364 2.58703C12.387 2.64052 12.3804 2.6544 12.3643 2.54353C12.3491 2.43921 12.3343 2.2944 12.3107 2.05811L11.3157 2.15746ZM11.4456 2.98265L10.5273 3.37866C10.956 4.3726 12.0977 4.84489 13.1031 4.44508L12.7336 3.51585L12.3641 2.58662L12.3638 2.58664L11.4456 2.98265ZM12.7336 3.51585L13.1037 4.44485C13.3026 4.36564 13.4688 4.24927 13.5914 4.15749C13.7194 4.06167 13.8722 3.93629 14.0417 3.79764L13.4084 3.02367L12.7752 2.2497C12.5908 2.40062 12.478 2.49268 12.3931 2.55624C12.3028 2.62383 12.3086 2.60877 12.3635 2.58686L12.7336 3.51585ZM13.4084 3.02367L14.0417 3.79764C14.1409 3.71644 14.1946 3.67275 14.2348 3.64234C14.271 3.6149 14.2666 3.62135 14.2416 3.63423L13.7834 2.74535L13.3253 1.85647C13.115 1.96484 12.925 2.12714 12.7752 2.2497L13.4084 3.02367ZM13.7834 2.74535L14.2416 3.63423L14.242 3.63402L14.7864 2.79515L15.3307 1.95628C14.7283 1.56539 13.9627 1.52795 13.3253 1.85646L13.7834 2.74535ZM14.7864 2.79515L14.2418 3.63389C14.217 3.61774 14.2124 3.61007 14.2462 3.64153C14.2837 3.67643 14.3325 3.72521 14.424 3.81671L15.1311 3.1096L15.8382 2.4025C15.7047 2.26902 15.53 2.08564 15.3309 1.95641L14.7864 2.79515ZM15.1311 3.1096L14.424 3.81671L15.1838 4.57648L15.8909 3.86937L16.598 3.16226L15.8382 2.4025L15.1311 3.1096ZM15.8909 3.86937L15.1838 4.57648C15.274 4.66673 15.3227 4.71571 15.3567 4.75243C15.3874 4.78556 15.3808 4.78196 15.3657 4.75878L16.2043 4.2141L17.043 3.66941C16.9145 3.47158 16.7352 3.29949 16.598 3.16226L15.8909 3.86937ZM16.2043 4.2141L15.3656 4.7586L15.3655 4.7584L16.2542 5.21703L17.1428 5.67565C17.4721 5.03761 17.4342 4.27205 17.0431 3.66959L16.2043 4.2141ZM16.2542 5.21703L15.3655 4.75836C15.3782 4.73383 15.3844 4.72973 15.357 4.76596C15.3267 4.80597 15.2829 4.85977 15.2021 4.9585L15.9758 5.59203L16.7496 6.22555C16.873 6.07477 17.0345 5.88541 17.1428 5.67569L16.2542 5.21703ZM15.9758 5.59203L15.2021 4.9585C15.0628 5.12867 14.9376 5.28143 14.8415 5.41022C14.7494 5.5338 14.6342 5.69937 14.5555 5.897L15.4846 6.26683L16.4137 6.63666C16.3923 6.69047 16.378 6.69546 16.4447 6.606C16.5075 6.52175 16.5993 6.40902 16.7496 6.22555L15.9758 5.59203ZM15.4846 6.26683L14.5554 5.89726C14.1555 6.90265 14.6276 8.04457 15.622 8.47322L16.0178 7.55492L16.4137 6.63661L16.4138 6.6364L15.4846 6.26683ZM16.0178 7.55492L15.6227 8.47357C15.8196 8.55824 16.0197 8.59338 16.1711 8.6151C16.3292 8.63777 16.5259 8.65708 16.7434 8.67885L16.843 7.68382L16.9426 6.68879C16.7052 6.66503 16.5604 6.65047 16.4552 6.63537C16.3432 6.61931 16.3582 6.61277 16.4129 6.63627L16.0178 7.55492ZM16.843 7.68382L16.7434 8.67885C16.871 8.69162 16.9399 8.6987 16.9898 8.70561C17.0349 8.71184 17.0272 8.71324 17.0003 8.70467L17.3049 7.75218L17.6095 6.7997C17.3842 6.72765 17.135 6.70805 16.9426 6.68879L16.843 7.68382ZM17.3049 7.75218L17.0003 8.70466L17.0007 8.70484L17.9788 8.49632L18.9568 8.28781C18.8071 7.58578 18.2925 7.01811 17.6095 6.79971L17.3049 7.75218ZM17.9788 8.49632L17.0007 8.70457C16.9945 8.67552 16.9967 8.66693 16.9984 8.71324C17.0002 8.76449 17.0002 8.8337 17.0002 8.96312H18.0002H19.0002C19.0002 8.77392 19.0063 8.52033 18.9568 8.28807L17.9788 8.49632ZM18.0002 8.96312H17.0002V10.0373H18.0002H19.0002V8.96312H18.0002ZM18.0002 10.0373H17.0002C17.0002 10.1663 17.0002 10.2354 16.9983 10.2864C16.9967 10.3325 16.9945 10.3241 17.0006 10.2954L17.9788 10.5032L18.9569 10.7109C19.0061 10.4793 19.0002 10.2269 19.0002 10.0373H18.0002ZM17.9788 10.5032L17.0006 10.2953L16.9999 10.2956L17.304 11.2483L17.608 12.2009C18.2917 11.9827 18.8074 11.4142 18.9569 10.7111L17.9788 10.5032ZM17.304 11.2483L17.0005 10.2954C17.0287 10.2864 17.0374 10.2878 16.9916 10.294C16.9409 10.3009 16.8722 10.3078 16.7437 10.3206L16.843 11.3157L16.9424 12.3107C17.1297 12.292 17.3819 12.2729 17.6074 12.2011L17.304 11.2483ZM16.843 11.3157L16.7437 10.3206C16.5249 10.3424 16.3284 10.362 16.1695 10.3851C16.017 10.4073 15.8186 10.443 15.6233 10.5271L16.0188 11.4455L16.4143 12.364C16.3611 12.3869 16.3474 12.3803 16.4578 12.3642C16.5618 12.3491 16.7064 12.3343 16.9424 12.3107L16.843 11.3157ZM16.0188 11.4455L15.6233 10.5271C14.6282 10.9556 14.1562 12.0978 14.5565 13.1034L15.4856 12.7336L16.4147 12.3638L16.4143 12.364L16.0188 11.4455ZM15.4856 12.7336L14.5567 13.1039C14.6354 13.3013 14.7505 13.4668 14.8426 13.5903C14.9386 13.719 15.0637 13.8717 15.2029 14.0418L15.9768 13.4084L16.7507 12.7751C16.6005 12.5916 16.5087 12.4788 16.4457 12.3944C16.3789 12.3048 16.3931 12.3097 16.4145 12.3634L15.4856 12.7336ZM15.9768 13.4084L15.2029 14.0418C15.2845 14.1415 15.3282 14.195 15.3591 14.2356C15.387 14.2723 15.38 14.2672 15.3665 14.2411L16.2551 13.7825L17.1438 13.3238C17.0351 13.1134 16.8706 12.9216 16.7507 12.7751L15.9768 13.4084ZM16.2551 13.7825L15.3663 14.2406L15.3657 14.2408L16.2043 14.7854L17.043 15.33C17.4333 14.729 17.4735 13.9635 17.144 13.3243L16.2551 13.7825ZM16.2043 14.7854L15.3658 14.2405C15.3808 14.2175 15.3874 14.2139 15.3567 14.2471C15.3227 14.2838 15.274 14.3328 15.1838 14.423L15.8909 15.1301L16.598 15.8372C16.7354 15.6998 16.9145 15.5279 17.0429 15.3302L16.2043 14.7854ZM15.8909 15.1301L15.1838 14.423L14.424 15.1828L15.1311 15.8899L15.8382 16.597L16.598 15.8372L15.8909 15.1301ZM15.1311 15.8899L14.424 15.1828C14.3325 15.2743 14.2837 15.3231 14.2462 15.358C14.2124 15.3894 14.217 15.3817 14.2419 15.3656L14.7864 16.2043L15.3309 17.0431C15.53 16.9138 15.7047 16.7305 15.8382 16.597L15.1311 15.8899ZM14.7864 16.2043L14.242 15.3655L14.2416 15.3652L13.7834 16.2541L13.3253 17.143C13.9627 17.4715 14.7283 17.4341 15.3307 17.0432L14.7864 16.2043ZM13.7834 16.2541L14.2416 15.3653C14.2666 15.3781 14.271 15.3846 14.2348 15.3571C14.1946 15.3267 14.1409 15.283 14.0417 15.2018L13.4084 15.9758L12.7752 16.7498C12.925 16.8723 13.115 17.0346 13.3253 17.143L13.7834 16.2541ZM13.4084 15.9758L14.0417 15.2018C13.8717 15.0627 13.7187 14.9373 13.5901 14.8413C13.4669 14.7492 13.3006 14.6332 13.1019 14.5543L12.7327 15.4836L12.3635 16.413C12.3088 16.3913 12.3032 16.3764 12.3933 16.4436C12.478 16.5069 12.5909 16.599 12.7752 16.7498L13.4084 15.9758ZM12.7327 15.4836L13.1016 14.5542C12.0965 14.1552 10.9559 14.6272 10.5273 15.6208L11.4456 16.0168L12.3638 16.4129L12.3637 16.4131L12.7327 15.4836ZM11.4456 16.0168L10.5273 15.6209C10.4427 15.8171 10.4071 16.0165 10.385 16.1689C10.3619 16.3279 10.3425 16.5249 10.3206 16.7437L11.3157 16.843L12.3107 16.9423C12.3344 16.7056 12.3491 16.5606 12.3643 16.456C12.3804 16.3448 12.387 16.3589 12.3638 16.4127L11.4456 16.0168ZM11.3157 16.843L10.3206 16.7437C10.3077 16.8731 10.3009 16.9417 10.294 16.9929C10.2877 17.039 10.2865 17.0296 10.2957 17.0005L11.2483 17.3049L12.2008 17.6093C12.2732 17.3827 12.2922 17.1282 12.3107 16.9423L11.3157 16.843ZM11.2483 17.3049L10.2958 17.0004L10.2949 17.0007L10.5032 17.9787L10.7114 18.9568C11.4125 18.8075 11.982 18.2938 12.2008 17.6094L11.2483 17.3049ZM10.5032 17.9787L10.2956 17.0005C10.3241 16.9945 10.3324 16.9967 10.2864 16.9983C10.2354 17.0002 10.1663 17.0002 10.0374 17.0002V18.0002V19.0002C10.2271 19.0002 10.4792 19.0061 10.7108 18.957L10.5032 17.9787ZM10.0374 18.0002V17.0002H8.96313V18.0002V19.0002H10.0374V18.0002ZM8.96313 18.0002V17.0002C8.8337 17.0002 8.7645 17.0002 8.71325 16.9983C8.66697 16.9967 8.67555 16.9945 8.70456 17.0007L8.49634 17.9787L8.28812 18.9568C8.52038 19.0063 8.7739 19.0002 8.96313 19.0002V18.0002ZM8.49634 17.9787L8.70466 17.0007L8.70456 16.9999L7.7522 17.3049L6.79984 17.6099C7.01826 18.292 7.58544 18.8072 8.28801 18.9568L8.49634 17.9787ZM7.7522 17.3049L8.7047 17.0004C8.71332 17.0274 8.71192 17.0352 8.70567 16.9899C8.69874 16.9398 8.69166 16.8709 8.67884 16.7431L7.68384 16.843L6.68884 16.9429C6.70809 17.1346 6.72769 17.3842 6.79969 17.6094L7.7522 17.3049ZM7.68384 16.843L8.67884 16.7431C8.65691 16.5247 8.63739 16.328 8.61438 16.1694C8.59232 16.0174 8.5568 15.818 8.47222 15.6218L7.55396 16.0178L6.63569 16.4138C6.61239 16.3597 6.61896 16.3453 6.6351 16.4566C6.65028 16.5612 6.66506 16.706 6.68884 16.9429L7.68384 16.843ZM7.55396 16.0178L8.47219 15.6218C8.04358 14.628 6.90198 14.1551 5.89602 14.5555L6.26587 15.4846L6.63572 16.4137L6.63572 16.4138L7.55396 16.0178ZM6.26587 15.4846L5.8959 14.5556C5.69642 14.635 5.52994 14.7519 5.4077 14.8436C5.28009 14.9393 5.12749 15.0647 4.95855 15.203L5.59204 15.9768L6.22553 16.7505C6.41019 16.5994 6.52262 16.5074 6.60758 16.4436C6.69791 16.3759 6.69155 16.3915 6.63584 16.4136L6.26587 15.4846ZM5.59204 15.9768L4.95855 15.203C4.86108 15.2828 4.80728 15.3263 4.76811 15.3558C4.73272 15.3824 4.73572 15.3772 4.75832 15.3656L5.21704 16.2541L5.67576 17.1427C5.88418 17.0351 6.07041 16.8775 6.22553 16.7505L5.59204 15.9768ZM5.21704 16.2541L4.75843 15.3655L4.7587 15.3656L4.21411 16.2043L3.66952 17.043C4.2721 17.4343 5.03767 17.472 5.67566 17.1428L5.21704 16.2541ZM4.21411 16.2043L4.75879 15.3657C4.78197 15.3807 4.78557 15.3874 4.75246 15.3567C4.71574 15.3227 4.66676 15.274 4.57649 15.1837L3.86938 15.8909L3.16228 16.598C3.29954 16.7352 3.47161 16.9145 3.66943 17.043L4.21411 16.2043ZM3.86938 15.8909L4.57649 15.1837L3.81673 14.424L3.10962 15.1311L2.40251 15.8382L3.16228 16.598L3.86938 15.8909ZM3.10962 15.1311L3.81673 14.424C3.72523 14.3325 3.67644 14.2836 3.64154 14.2462C3.61009 14.2124 3.61775 14.217 3.63391 14.2418L2.79517 14.7864L1.95643 15.3309C2.08565 15.5299 2.26903 15.7047 2.40251 15.8382L3.10962 15.1311ZM2.79517 14.7864L3.63404 14.242L3.63425 14.2416L2.74536 13.7834L1.85648 13.3253C1.52796 13.9627 1.56541 14.7283 1.95629 15.3307L2.79517 14.7864ZM2.74536 13.7834L3.63424 14.2416C3.62136 14.2666 3.61492 14.271 3.64236 14.2348C3.67277 14.1946 3.71646 14.1409 3.79765 14.0417L3.02368 13.4084L2.24971 12.7752C2.12716 12.925 1.96485 13.115 1.85648 13.3253L2.74536 13.7834ZM3.02368 13.4084L3.79765 14.0417C3.9363 13.8722 4.06169 13.7194 4.1575 13.5914C4.24928 13.4688 4.36566 13.3025 4.44486 13.1037L3.51587 12.7336L2.58687 12.3635C2.60878 12.3085 2.62385 12.3027 2.55626 12.3931C2.49269 12.478 2.40063 12.5907 2.24971 12.7752L3.02368 13.4084ZM3.51587 12.7336L4.4451 13.1031C4.84491 12.0977 4.37261 10.9559 3.37867 10.5273L2.98267 11.4455L2.58666 12.3638L2.58664 12.3641L3.51587 12.7336ZM2.98267 11.4455L3.37828 10.5271C3.18259 10.4428 2.98364 10.4072 2.83123 10.3851C2.67227 10.362 2.47559 10.3424 2.25681 10.3206L2.15747 11.3157L2.05813 12.3107C2.29441 12.3343 2.43923 12.3491 2.54354 12.3643C2.65442 12.3804 2.64054 12.387 2.58705 12.364L2.98267 11.4455ZM2.15747 11.3157L2.25681 10.3206C2.12826 10.3078 2.05963 10.3009 2.00887 10.294C1.96308 10.2878 1.97179 10.2865 1.99991 10.2954L1.69653 11.2483L1.39316 12.2011C1.61864 12.2729 1.8707 12.292 2.05813 12.3107L2.15747 11.3157ZM1.69653 11.2483L2.00071 10.2957C2.00057 10.2956 2.0006 10.2956 2.0006 10.2956C2.00051 10.2956 2.00028 10.2954 2.00001 10.2951C1.99975 10.2948 1.99966 10.2946 1.99968 10.2947C1.9997 10.2947 1.99974 10.2948 1.99979 10.2949C1.99983 10.2951 1.99985 10.2951 1.99985 10.2951L1.02173 10.5032L0.0436072 10.7112C0.19312 11.4142 0.70889 11.9827 1.39236 12.2009L1.69653 11.2483ZM1.02173 10.5032L1.99993 10.2955C2.006 10.3241 2.00381 10.3324 2.00215 10.2864C2.00032 10.2354 2.00024 10.1663 2.00024 10.0373H1.00024H0.000244141C0.000244141 10.227 -0.00563943 10.4792 0.0435307 10.7108L1.02173 10.5032ZM1.00024 10.0373H2.00024V8.96312H1.00024H0.000244141V10.0373H1.00024ZM1.00024 8.96312H2.00024C2.00024 8.83378 2.0003 8.76454 2.00213 8.71327C2.00379 8.6669 2.006 8.67545 1.99982 8.7045L1.02173 8.49632L0.043638 8.28814C-0.00577831 8.52031 0.000244141 8.77392 0.000244141 8.96312H1.00024ZM1.02173 8.49632L1.99975 8.70482L2.00016 8.70466L1.69556 7.75218L1.39095 6.7997C0.708032 7.0181 0.19337 7.58576 0.0437046 8.28783L1.02173 8.49632ZM1.69556 7.75218L2.00013 8.70467C1.97329 8.71325 1.96556 8.71184 2.01066 8.70561C2.06062 8.6987 2.12949 8.69162 2.25708 8.67885L2.15747 7.68382L2.05786 6.6888C1.86555 6.70805 1.61626 6.72766 1.39098 6.79969L1.69556 7.75218ZM2.15747 7.68382L2.25708 8.67885C2.47453 8.65708 2.6713 8.6378 2.8293 8.61515C2.98066 8.59345 3.18112 8.55829 3.37839 8.47328L2.98267 7.55492L2.58694 6.63655C2.64197 6.61283 2.6574 6.61935 2.54549 6.63539C2.44024 6.65048 2.29553 6.665 2.05786 6.6888L2.15747 7.68382ZM2.98267 7.55492L3.37865 8.47318C4.37278 8.04448 4.84473 6.90262 4.44513 5.89742L3.51587 6.26683L2.5866 6.63624L2.58669 6.63666L2.98267 7.55492ZM3.51587 6.26683L4.44508 5.89728C4.36588 5.69814 4.24944 5.53177 4.15757 5.40902C4.06171 5.28094 3.93625 5.12815 3.79754 4.95867L3.02368 5.59203L2.24982 6.22538C2.40083 6.40989 2.49285 6.52255 2.55635 6.60739C2.62383 6.69756 2.60862 6.69159 2.58666 6.63638L3.51587 6.26683ZM3.02368 5.59203L3.79754 4.95867C3.71655 4.85971 3.67283 4.80594 3.64247 4.76584C3.61502 4.72956 3.62131 4.73382 3.63409 4.7586L2.74536 5.21703L1.85663 5.67546C1.96493 5.88541 2.12688 6.07516 2.24982 6.22538L3.02368 5.59203ZM2.74536 5.21703L3.63422 4.75885L3.63493 4.75855L2.79614 4.2141L1.95735 3.66964C1.56741 4.27039 1.52695 5.03588 1.8565 5.6752L2.74536 5.21703ZM2.79614 4.2141L3.63461 4.75904C3.61966 4.78206 3.61313 4.78554 3.64384 4.75239C3.67786 4.71567 3.72655 4.66665 3.81673 4.57648L3.10962 3.86937L2.40251 3.16226C2.26509 3.29969 2.08608 3.47158 1.95767 3.66915L2.79614 4.2141ZM3.10962 3.86937L3.81673 4.57648L4.57649 3.81671L3.86938 3.1096L3.16228 2.4025L2.40251 3.16226L3.10962 3.86937ZM3.86938 3.1096L4.57649 3.81671C4.668 3.7252 4.71684 3.67641 4.75432 3.64152C4.78809 3.61007 4.78352 3.61774 4.75864 3.63389L4.21411 2.79515L3.66958 1.95641C3.47055 2.08563 3.2958 2.26898 3.16228 2.4025L3.86938 3.1096ZM4.21411 2.79515L4.75852 3.63397L4.75892 3.63424L5.21704 2.74535L5.67516 1.85646C5.03782 1.52798 4.27222 1.56528 3.6697 1.95633L4.21411 2.79515ZM5.21704 2.74535L4.75885 3.6342C4.73384 3.62131 4.7294 3.61487 4.76572 3.64237C4.80592 3.6728 4.85965 3.71651 4.95885 3.79766L5.59204 3.02367L6.22523 2.24967C6.07554 2.12721 5.88543 1.96485 5.67523 1.85649L5.21704 2.74535ZM5.59204 3.02367L4.95885 3.79766C5.12819 3.93619 5.28098 4.06166 5.40894 4.15745C5.53153 4.24922 5.69808 4.36588 5.8975 4.44515L6.26685 3.51585L6.63619 2.58656C6.69168 2.60862 6.69783 2.62399 6.60751 2.55638C6.52255 2.49278 6.40991 2.40076 6.22523 2.24967L5.59204 3.02367ZM6.26685 3.51585L5.89759 4.44518C6.9027 4.84454 8.04432 4.37241 8.47308 3.37889L7.55493 2.98265L6.63678 2.58642L6.6361 2.58652L6.26685 3.51585ZM7.55493 2.98265L8.47318 3.37866C8.55834 3.18118 8.59351 2.98046 8.61519 2.82919C8.63783 2.67119 8.6571 2.4744 8.67886 2.2571L7.68384 2.15746L6.68881 2.05782C6.66501 2.29549 6.6505 2.44018 6.63541 2.54549C6.61936 2.65752 6.61285 2.6419 6.63669 2.58664L7.55493 2.98265ZM7.68384 2.15746L8.67886 2.2571C8.69163 2.12959 8.69872 2.06068 8.70563 2.01069C8.71188 1.96547 8.71329 1.97319 8.7047 2.00008L7.7522 1.69554L6.7997 1.39101C6.72769 1.61622 6.70806 1.86566 6.68881 2.05782L7.68384 2.15746ZM7.7522 1.69554L8.70467 2.00015L8.70481 1.99974L8.49634 1.02171L8.28787 0.0436842C7.58575 0.193343 7.01812 0.708034 6.79972 1.39093L7.7522 1.69554ZM8.49634 1.02171L8.70445 1.99982C8.6754 2.006 8.66688 2.00378 8.71332 2.00212C8.7646 2.00028 8.83388 2.00023 8.96313 2.00023V1.00023V0.000228882C8.77394 0.000228882 8.52031 -0.00577235 8.28823 0.0436081L8.49634 1.02171ZM8.96313 1.00023V2.00023H10.0374V1.00023V0.000228882H8.96313V1.00023ZM9.50024 6.09984L9.50024 5.09984C7.07021 5.09985 5.09985 7.07018 5.09985 9.50023H6.09985H7.09985C7.09985 8.17476 8.17477 7.09985 9.50025 7.09984L9.50024 6.09984ZM6.09985 9.50023L5.09985 9.50026C5.09992 11.9302 7.07021 13.9006 9.50024 13.9006L9.50024 12.9006L9.50025 11.9006C8.17482 11.9006 7.09989 10.8257 7.09985 9.5002L6.09985 9.50023ZM9.50024 12.9006V13.9006C11.9303 13.9006 13.9006 11.9302 13.9006 9.50026L12.9006 9.50023L11.9006 9.5002C11.9006 10.8257 10.8257 11.9006 9.50024 11.9006V12.9006ZM12.9006 9.50023H13.9006C13.9006 7.07018 11.9303 5.09984 9.50024 5.09984V6.09984V7.09984C10.8257 7.09984 11.9006 8.17475 11.9006 9.50023H12.9006Z" fill="#575757"/>
</svg>
